<svg width="100" height="100" viewBox="0 0 100 100" fill="none" xmlns="http://www.w3.org/2000/svg">
<rect opacity="0.3" width="100" height="100" rx="30" fill="url(#paint0_linear_33_738)"/>
<path fill-rule="evenodd" clip-rule="evenodd" d="M85 50C85 69.33 69.33 85 50 85C30.67 85 15 69.33 15 50C15 30.67 30.67 15 50 15C69.33 15 85 30.67 85 50ZM31.2657 34.0001C31.0833 33.9978 30.9027 34.0353 30.7364 34.1102C30.5701 34.1851 30.4222 34.2955 30.3031 34.4337C30.1841 34.5718 30.0967 34.7343 30.0471 34.9098C29.9975 35.0853 29.9869 35.2696 30.0161 35.4496L35.3205 67.651C35.3866 68.045 35.5894 68.4032 35.8934 68.6626C36.1963 68.9211 36.5804 69.065 36.9785 69.0692C36.9803 69.0692 36.9821 69.0692 36.9839 69.0692H62.4315C62.4366 69.0693 62.4417 69.0693 62.4468 69.0693C62.7431 69.071 63.0304 68.9673 63.2574 68.7766C63.4868 68.5839 63.6393 68.3153 63.6872 68.0196L66.2536 52.2169L68.9839 35.4559C69.0131 35.2758 69.0025 35.0916 68.9529 34.9161C68.9033 34.7406 68.8159 34.5781 68.6969 34.4399C68.5778 34.3018 68.4299 34.1914 68.2636 34.1165C68.0973 34.0416 67.9167 34.004 67.7343 34.0064L31.2657 34.0001ZM53.6017 57.2733H45.4795L43.2803 45.7835H55.5698L53.6017 57.2733Z" fill="url(#paint1_linear_33_738)"/>
<defs>
<linearGradient id="paint0_linear_33_738" x1="-1.06819e-06" y1="4.94071" x2="81.5597" y2="102.758" gradientUnits="userSpaceOnUse">
<stop stop-color="#623E7E"/>
<stop offset="1" stop-color="#465394"/>
</linearGradient>
<linearGradient id="paint1_linear_33_738" x1="15" y1="18.4585" x2="72.0918" y2="86.9304" gradientUnits="userSpaceOnUse">
<stop stop-color="#623E7E"/>
<stop offset="1" stop-color="#465394"/>
</linearGradient>
</defs>
</svg>
