<svg width="48" height="48" viewBox="0 0 48 48" fill="none" xmlns="http://www.w3.org/2000/svg">
<rect opacity="0.3" width="48" height="48" rx="12" fill="url(#paint0_linear_116_196)"/>
<path fill-rule="evenodd" clip-rule="evenodd" d="M24 7C14.6075 7 7 14.5705 7 23.9173C7 31.4033 11.8662 37.7261 18.6237 39.9677C19.4737 40.1157 19.7925 39.6082 19.7925 39.1641C19.7925 38.7623 19.7713 37.4301 19.7713 36.0133C15.5 36.7957 14.395 34.9771 14.055 34.0255C13.8637 33.5391 13.035 32.0377 12.3125 31.6359C11.7175 31.3187 10.8675 30.5363 12.2913 30.5151C13.63 30.494 14.5862 31.7416 14.905 32.2491C16.435 34.8079 18.8788 34.0889 19.8563 33.6448C20.005 32.5452 20.4513 31.8051 20.94 31.3821C17.1575 30.9592 13.205 29.5001 13.205 23.0292C13.205 21.1894 13.8637 19.6669 14.9475 18.4826C14.7775 18.0597 14.1825 16.3257 15.1175 13.9996C15.1175 13.9996 16.5413 13.5555 19.7925 15.7336C21.1525 15.3529 22.5975 15.1626 24.0425 15.1626C25.4875 15.1626 26.9325 15.3529 28.2925 15.7336C31.5438 13.5343 32.9675 13.9996 32.9675 13.9996C33.9025 16.3257 33.3075 18.0597 33.1375 18.4826C34.2213 19.6669 34.88 21.1683 34.88 23.0292C34.88 29.5212 30.9062 30.9592 27.1238 31.3821C27.74 31.9108 28.2712 32.9258 28.2712 34.5118C28.2712 36.7745 28.25 38.5931 28.25 39.1641C28.25 39.6082 28.5688 40.1369 29.4188 39.9677C36.1338 37.7261 41 31.3821 41 23.9173C41 14.5705 33.3925 7 24 7Z" fill="url(#paint1_linear_116_196)"/>
<defs>
<linearGradient id="paint0_linear_116_196" x1="-5.12732e-07" y1="2.37154" x2="39.1487" y2="49.3237" gradientUnits="userSpaceOnUse">
<stop stop-color="#623E7E"/>
<stop offset="1" stop-color="#465394"/>
</linearGradient>
<linearGradient id="paint1_linear_116_196" x1="7" y1="8.63044" x2="33.7591" y2="41.696" gradientUnits="userSpaceOnUse">
<stop stop-color="#623E7E"/>
<stop offset="1" stop-color="#465394"/>
</linearGradient>
</defs>
</svg>
