<svg width="100" height="100" viewBox="0 0 100 100" fill="none" xmlns="http://www.w3.org/2000/svg">
<rect opacity="0.3" width="100" height="100" rx="30" fill="url(#paint0_linear_33_730)"/>
<path fill-rule="evenodd" clip-rule="evenodd" d="M49.9987 14.584C30.431 14.584 14.582 30.3559 14.582 49.8285C14.582 65.4241 24.7201 78.5968 38.7982 83.2667C40.569 83.5751 41.2331 82.5177 41.2331 81.5925C41.2331 80.7555 41.1888 77.98 41.1888 75.0283C32.2904 76.6583 29.9883 72.8695 29.2799 70.887C28.8815 69.8738 27.1549 66.7458 25.6497 65.9088C24.4102 65.2479 22.6393 63.6179 25.6055 63.5738C28.3945 63.5298 30.3867 66.129 31.0508 67.1864C34.2383 72.5171 39.3294 71.0192 41.3659 70.094C41.6758 67.8031 42.6055 66.2612 43.6237 65.3801C35.7435 64.499 27.5091 61.4591 27.5091 47.9781C27.5091 44.1453 28.8815 40.9733 31.1393 38.5062C30.7852 37.6251 29.5456 34.0125 31.4935 29.1664C31.4935 29.1664 34.4596 28.2412 41.2331 32.7789C44.0664 31.9859 47.0768 31.5894 50.0872 31.5894C53.0977 31.5894 56.1081 31.9859 58.9414 32.7789C65.7148 28.1972 68.681 29.1664 68.681 29.1664C70.6289 34.0125 69.3893 37.6251 69.0352 38.5062C71.293 40.9733 72.6654 44.1012 72.6654 47.9781C72.6654 61.5032 64.3867 64.499 56.5065 65.3801C57.7904 66.4815 58.8971 68.5961 58.8971 71.9003C58.8971 76.6143 58.8529 80.403 58.8529 81.5925C58.8529 82.5177 59.5169 83.6191 61.2878 83.2667C75.2773 78.5968 85.4154 65.3801 85.4154 49.8285C85.4154 30.3559 69.5664 14.584 49.9987 14.584Z" fill="url(#paint1_linear_33_730)"/>
<defs>
<linearGradient id="paint0_linear_33_730" x1="-1.06819e-06" y1="4.94071" x2="81.5597" y2="102.758" gradientUnits="userSpaceOnUse">
<stop stop-color="#4269FF"/>
<stop offset="1" stop-color="#944FFF"/>
</linearGradient>
<linearGradient id="paint1_linear_33_730" x1="14.582" y1="17.9807" x2="70.3302" y2="86.8673" gradientUnits="userSpaceOnUse">
<stop stop-color="#4269FF"/>
<stop offset="1" stop-color="#944FFF"/>
</linearGradient>
</defs>
</svg>
