<svg width="100" height="100" viewBox="0 0 100 100" fill="none" xmlns="http://www.w3.org/2000/svg">
<rect opacity="0.3" width="100" height="100" rx="30" fill="url(#paint0_linear_33_733)"/>
<path fill-rule="evenodd" clip-rule="evenodd" d="M50 85C69.33 85 85 69.33 85 50C85 30.67 69.33 15 50 15C30.67 15 15 30.67 15 50C15 69.33 30.67 85 50 85ZM74.0993 44.8223L74.1696 45.0013C75.1452 47.5507 75.2645 50.3468 74.5096 52.9695C73.7547 55.5923 72.1663 57.8999 69.9831 59.5457L69.9571 59.5665L59.5273 67.3526L54.3983 71.2223L51.2741 73.5737C50.9086 73.8503 50.4624 74 50.0036 74C49.5447 74 49.0985 73.8503 48.733 73.5737L45.6088 71.2223L40.4798 67.3526L30.1125 59.6132L30.05 59.5691L30.0266 59.5509C27.8385 57.9054 26.2464 55.5954 25.4903 52.9691C24.7343 50.3428 24.8552 47.5427 25.8349 44.991L25.9026 44.8119L32.7213 27.1141C32.8606 26.7676 33.1056 26.4735 33.4216 26.2732C33.7385 26.0771 34.1082 25.9827 34.4806 26.0026C34.8531 26.0226 35.2104 26.156 35.5044 26.3848C35.7974 26.6193 36.0088 26.9399 36.1085 27.301L40.7037 41.3159H59.3112L63.9065 27.301C64.0089 26.9418 64.2198 26.6228 64.5105 26.3874C64.8045 26.1586 65.1618 26.0252 65.5343 26.0052C65.9068 25.9853 66.2764 26.0797 66.5933 26.2758C66.91 26.4753 67.1552 26.7697 67.2937 27.1167L74.0993 44.8223Z" fill="url(#paint1_linear_33_733)"/>
<defs>
<linearGradient id="paint0_linear_33_733" x1="-1.06819e-06" y1="4.94071" x2="81.5597" y2="102.758" gradientUnits="userSpaceOnUse">
<stop stop-color="#623E7E"/>
<stop offset="1" stop-color="#465394"/>
</linearGradient>
<linearGradient id="paint1_linear_33_733" x1="15" y1="18.4585" x2="72.0918" y2="86.9304" gradientUnits="userSpaceOnUse">
<stop stop-color="#623E7E"/>
<stop offset="1" stop-color="#465394"/>
</linearGradient>
</defs>
</svg>
