<svg width="48" height="48" viewBox="0 0 48 48" fill="none" xmlns="http://www.w3.org/2000/svg">
<rect opacity="0.3" width="48" height="48" rx="12" fill="url(#paint0_linear_33_1012)"/>
<path fill-rule="evenodd" clip-rule="evenodd" d="M24 7C14.6112 7 7 14.6112 7 24C7 33.3888 14.6112 41 24 41C33.3888 41 41 33.3888 41 24C41 14.6112 33.3888 7 24 7ZM15.1602 21.0801H19.0127V32.6555H15.1602V21.0801ZM19.2677 17.4994C19.2427 16.3645 18.4311 15.5 17.1132 15.5C15.7952 15.5 14.9336 16.3645 14.9336 17.4994C14.9336 18.6109 15.7698 19.5002 17.0631 19.5002H17.0878C18.4311 19.5002 19.2677 18.6109 19.2677 17.4994ZM28.474 20.8083C31.0092 20.8083 32.9098 22.4631 32.9098 26.0185L32.9097 32.6555H29.0572V26.4626C29.0572 24.9071 28.4997 23.8457 27.1051 23.8457C26.0407 23.8457 25.4068 24.5613 25.1283 25.2524C25.0265 25.5001 25.0015 25.8452 25.0015 26.1911V32.6558H21.1484C21.1484 32.6558 21.1992 22.1666 21.1484 21.0804H25.0015V22.72C25.5128 21.9318 26.4286 20.8083 28.474 20.8083Z" fill="url(#paint1_linear_33_1012)"/>
<defs>
<linearGradient id="paint0_linear_33_1012" x1="-5.12732e-07" y1="2.37154" x2="39.1487" y2="49.3237" gradientUnits="userSpaceOnUse">
<stop stop-color="#4269FF"/>
<stop offset="1" stop-color="#944FFF"/>
</linearGradient>
<linearGradient id="paint1_linear_33_1012" x1="7" y1="8.67984" x2="34.7303" y2="41.9376" gradientUnits="userSpaceOnUse">
<stop stop-color="#4269FF"/>
<stop offset="1" stop-color="#944FFF"/>
</linearGradient>
</defs>
</svg>
