<svg width="220" height="220" viewBox="0 0 220 220" fill="none" xmlns="http://www.w3.org/2000/svg">
<path fill-rule="evenodd" clip-rule="evenodd" d="M110 0C49.2487 0 0 49.2487 0 110C0 170.751 49.2487 220 110 220C170.751 220 220 170.751 220 110C220 49.2487 170.751 0 110 0ZM110.305 170.576V170.636L50.7507 96.969L66.9488 71.9592L153.472 71.921L169.757 96.9318L77.4607 96.9798L135.887 111.562L136.461 111.669C137.854 112.259 139.14 113.085 140.257 114.116C141.867 115.601 143.077 117.464 143.776 119.535C144.476 121.605 144.642 123.817 144.261 125.968C143.88 128.119 142.962 130.14 141.593 131.847V131.848L110.305 170.576ZM171.298 118.174L171.212 118.158L110.306 193.502V193.82L32.6782 97.9935L58.9309 57.3691H161.242L187.708 97.8598L171.298 118.174Z" fill="url(#paint0_linear_116_733)"/>
<defs>
<linearGradient id="paint0_linear_116_733" x1="-2.35002e-06" y1="10.8696" x2="179.431" y2="226.067" gradientUnits="userSpaceOnUse">
<stop stop-color="#4269FF"/>
<stop offset="1" stop-color="#944FFF"/>
</linearGradient>
</defs>
</svg>
