<svg width="142" height="141" viewBox="0 0 142 141" fill="none" xmlns="http://www.w3.org/2000/svg">
<g opacity="0.4" filter="url(#filter0_f_116_280)">
<rect x="44" y="44.1016" width="54" height="52.898" rx="12" fill="url(#paint0_linear_116_280)"/>
</g>
<rect x="44" y="43" width="54" height="52.898" rx="12" fill="url(#paint1_linear_116_280)"/>
<path fill-rule="evenodd" clip-rule="evenodd" d="M60.4063 71.9251V71.8918V66.4551V66.4218C60.4062 65.1898 60.4062 64.2194 60.47 63.4384C60.5351 62.6416 60.6704 61.9763 60.9785 61.3716C61.4818 60.3838 62.2849 59.5806 63.2728 59.0773C63.8775 58.7692 64.5428 58.634 65.3396 58.5689C66.1206 58.5051 67.0911 58.5051 68.323 58.5051H68.3563H74.2063H74.2395C75.4714 58.5051 76.4419 58.5051 77.2229 58.5689C78.0197 58.634 78.685 58.7692 79.2897 59.0773C80.2776 59.5806 81.0807 60.3838 81.584 61.3716C81.8921 61.9763 82.0274 62.6416 82.0925 63.4384C82.1563 64.2194 82.1563 65.1898 82.1562 66.4217V66.4551V71.8918V71.9251C82.1563 73.157 82.1563 74.1275 82.0925 74.9085C82.0274 75.7052 81.8921 76.3706 81.584 76.9752C81.0807 77.9631 80.2776 78.7662 79.2897 79.2696C78.685 79.5777 78.0197 79.7129 77.2229 79.778C76.4419 79.8418 75.4715 79.8418 74.2396 79.8418H74.2396H74.2062H68.3563H68.3229H68.3229H68.3229C67.091 79.8418 66.1206 79.8418 65.3396 79.778C64.5428 79.7129 63.8775 79.5777 63.2728 79.2696C62.2849 78.7662 61.4818 77.9631 60.9785 76.9752C60.6704 76.3706 60.5351 75.7052 60.47 74.9085C60.4062 74.1275 60.4062 73.157 60.4063 71.9251V71.9251ZM64.5845 69.1734L65.1314 69.7092L68.5064 73.0153C68.8023 73.3052 69.2772 73.3003 69.567 73.0044C69.8569 72.7085 69.852 72.2336 69.5561 71.9438L66.728 69.1734L69.5561 66.4031C69.852 66.1132 69.8569 65.6384 69.567 65.3425C69.2772 65.0466 68.8023 65.0417 68.5064 65.3315L65.1314 68.6377L64.5845 69.1734ZM77.978 69.1734L77.4311 69.7092L74.0561 73.0153C73.7602 73.3052 73.2853 73.3003 72.9955 73.0044C72.7056 72.7085 72.7105 72.2336 73.0064 71.9438L75.8345 69.1734L73.0064 66.4031C72.7105 66.1132 72.7056 65.6384 72.9955 65.3425C73.2853 65.0466 73.7602 65.0417 74.0561 65.3315L77.4311 68.6377L77.978 69.1734Z" fill="white"/>
<defs>
<filter id="filter0_f_116_280" x="0" y="0.101562" width="142" height="140.898" filterUnits="userSpaceOnUse" color-interpolation-filters="sRGB">
<feFlood flood-opacity="0" result="BackgroundImageFix"/>
<feBlend mode="normal" in="SourceGraphic" in2="BackgroundImageFix" result="shape"/>
<feGaussianBlur stdDeviation="22" result="effect1_foregroundBlur_116_280"/>
</filter>
<linearGradient id="paint0_linear_116_280" x1="44" y1="46.7151" x2="86.975" y2="99.33" gradientUnits="userSpaceOnUse">
<stop stop-color="#623E7E"/>
<stop offset="1" stop-color="#465394"/>
</linearGradient>
<linearGradient id="paint1_linear_116_280" x1="44" y1="45.6135" x2="86.975" y2="98.2285" gradientUnits="userSpaceOnUse">
<stop stop-color="#623E7E"/>
<stop offset="1" stop-color="#465394"/>
</linearGradient>
</defs>
</svg>
