<svg width="48" height="48" viewBox="0 0 48 48" fill="none" xmlns="http://www.w3.org/2000/svg">
<rect opacity="0.3" width="48" height="48" rx="12" fill="url(#paint0_linear_116_760)"/>
<path fill-rule="evenodd" clip-rule="evenodd" d="M24 7C14.6112 7 7 14.6112 7 24C7 33.3888 14.6112 41 24 41C33.3888 41 41 33.3888 41 24C41 14.6112 33.3888 7 24 7ZM31.5424 16.431H31.5612L31.5611 16.431C31.6318 16.5093 31.6892 16.5989 31.731 16.6958C32.4862 18.0388 31.7121 22.6539 28.6344 25.718C28.2517 26.1007 27.8416 26.4547 27.4072 26.7773L27.5205 28.6309C27.5259 28.7514 27.4928 28.8707 27.4261 28.9713L24.9715 32.7352C24.8691 32.8979 24.6915 32.9976 24.4994 33H24.405C24.2952 32.9803 24.1935 32.9285 24.1129 32.851C24.0322 32.7737 23.9762 32.6741 23.952 32.565V32.5649L23.1778 29.236L22.4603 30.2763C22.3653 30.4162 22.2131 30.5064 22.0449 30.5222H21.9882C21.8389 30.5201 21.6964 30.4589 21.5918 30.352L21.1008 29.7844V29.9169C21.0921 29.9971 21.0663 30.0744 21.0254 30.144C20.8485 30.4702 20.6259 30.7696 20.3645 31.0329C19.5606 31.8026 18.4933 32.2357 17.3812 32.2435C16.9943 32.2672 16.6084 32.182 16.2673 31.9975L16.135 31.9029H16.1162C16.0644 31.8527 16.0201 31.7954 15.9841 31.7327V31.7326C15.5121 30.976 15.7198 28.8954 16.947 27.666C17.22 27.3945 17.5319 27.1651 17.8722 26.9852V26.9851L18.0988 26.9284H18.1742L17.6456 26.3988C17.5257 26.2802 17.4649 26.1142 17.4795 25.946C17.494 25.7779 17.5826 25.625 17.7212 25.5288H17.721L18.7595 24.81L15.4365 24.0345C15.293 24.0007 15.1684 23.9122 15.089 23.7878C15.0097 23.6633 14.9819 23.5128 15.0116 23.3682C15.0411 23.2236 15.1259 23.0963 15.2477 23.0131L19.0051 20.5354C19.1054 20.4684 19.2245 20.4353 19.345 20.4408L21.1953 20.5543C21.5172 20.1192 21.8707 19.7082 22.2526 19.3249C23.7203 17.902 25.5275 16.8796 27.5016 16.3553H27.5017C29.1633 15.9013 30.6738 15.8824 31.3535 16.2985L31.5424 16.431ZM25.6481 24.2228C26.3231 24.3121 27.0012 24.0818 27.4829 23.5995L27.4829 23.5995C27.8955 23.1894 28.1266 22.6307 28.1248 22.0486C28.125 21.3664 27.8087 20.7229 27.2686 20.3074C26.7286 19.892 26.0263 19.7519 25.3685 19.9281C24.7107 20.1044 24.1722 20.5771 23.9114 21.2073C23.6506 21.8374 23.6971 22.5531 24.0375 23.1441C24.3777 23.7349 24.973 24.1336 25.6481 24.2228Z" fill="url(#paint1_linear_116_760)"/>
<defs>
<linearGradient id="paint0_linear_116_760" x1="-5.12732e-07" y1="2.37154" x2="39.1487" y2="49.3237" gradientUnits="userSpaceOnUse">
<stop stop-color="#4269FF"/>
<stop offset="1" stop-color="#944FFF"/>
</linearGradient>
<linearGradient id="paint1_linear_116_760" x1="7" y1="8.67984" x2="34.7303" y2="41.9376" gradientUnits="userSpaceOnUse">
<stop stop-color="#4269FF"/>
<stop offset="1" stop-color="#944FFF"/>
</linearGradient>
</defs>
</svg>
