<svg width="48" height="48" viewBox="0 0 48 48" fill="none" xmlns="http://www.w3.org/2000/svg">
<rect opacity="0.3" width="48" height="48" rx="12" fill="url(#paint0_linear_116_790)"/>
<path fill-rule="evenodd" clip-rule="evenodd" d="M24 7C14.6112 7 7 14.6112 7 24C7 33.3888 14.6112 41 24 41C33.3888 41 41 33.3888 41 24C41 14.6112 33.3888 7 24 7ZM31.0424 18.08H31.0822L31.0822 18.0801C31.301 18.0801 31.48 18.2601 31.5 18.4801L31.4997 23.0401C31.4997 26.7801 29.6496 30.2602 26.5661 32.3401L24.2385 33.9201C24.159 33.9801 24.0994 34 23.9999 34C23.9005 34 23.8209 33.9601 23.7612 33.9201L21.4336 32.3401C18.35 30.2601 16.5 26.7801 16.5 23.0401V18.5001C16.5 18.26 16.699 18.08 16.9178 18.08H16.9577C19.5041 18.08 21.9709 16.9999 23.7016 15.12C23.8409 14.96 24.1393 14.96 24.2985 15.12C26.0292 17.0001 28.496 18.08 31.0424 18.08ZM23.8409 26.88L27.3223 23.0801C27.6804 22.6801 27.6605 22.0801 27.302 21.7402C26.9042 21.3801 26.3074 21.4002 25.9493 21.8002L23.1643 24.8202L22.1099 23.6801C21.7519 23.2801 21.1551 23.2602 20.7572 23.6201C20.3594 23.9801 20.3396 24.5801 20.6976 24.9801L22.4482 26.88C22.6274 27.06 22.8859 27.18 23.1446 27.18C23.4033 27.18 23.6619 27.0801 23.8409 26.88Z" fill="url(#paint1_linear_116_790)"/>
<defs>
<linearGradient id="paint0_linear_116_790" x1="-5.12732e-07" y1="2.37154" x2="39.1487" y2="49.3237" gradientUnits="userSpaceOnUse">
<stop stop-color="#4269FF"/>
<stop offset="1" stop-color="#944FFF"/>
</linearGradient>
<linearGradient id="paint1_linear_116_790" x1="7" y1="8.67984" x2="34.7303" y2="41.9376" gradientUnits="userSpaceOnUse">
<stop stop-color="#4269FF"/>
<stop offset="1" stop-color="#944FFF"/>
</linearGradient>
</defs>
</svg>
