<svg width="48" height="48" viewBox="0 0 48 48" fill="none" xmlns="http://www.w3.org/2000/svg">
<rect opacity="0.3" width="48" height="48" rx="12" fill="url(#paint0_linear_116_199)"/>
<path d="M15.119 28.3329C15.119 30.0184 13.7567 31.3807 12.0712 31.3807C10.3857 31.3807 9.02344 30.0184 9.02344 28.3329C9.02344 26.6474 10.3857 25.2852 12.0712 25.2852H15.119V28.3329ZM16.6429 28.3329C16.6429 26.6474 18.0051 25.2852 19.6906 25.2852C21.3761 25.2852 22.7384 26.6474 22.7384 28.3329V35.9523C22.7384 37.6379 21.3761 39.0001 19.6906 39.0001C18.0051 39.0001 16.6429 37.6379 16.6429 35.9523V28.3329Z" fill="url(#paint1_linear_116_199)"/>
<path d="M19.6903 16.0955C18.0048 16.0955 16.6425 14.7333 16.6425 13.0478C16.6425 11.3623 18.0048 10 19.6903 10C21.3758 10 22.7381 11.3623 22.7381 13.0478V16.0955H19.6903ZM19.6903 17.6425C21.3758 17.6425 22.7381 19.0048 22.7381 20.6903C22.7381 22.3758 21.3758 23.7381 19.6903 23.7381H12.0478C10.3623 23.7381 9 22.3758 9 20.6903C9 19.0048 10.3623 17.6425 12.0478 17.6425H19.6903Z" fill="url(#paint2_linear_116_199)"/>
<path d="M31.9043 20.6903C31.9043 19.0048 33.2666 17.6425 34.9521 17.6425C36.6376 17.6425 37.9999 19.0048 37.9999 20.6903C37.9999 22.3758 36.6376 23.7381 34.9521 23.7381H31.9043V20.6903ZM30.3805 20.6903C30.3805 22.3758 29.0182 23.7381 27.3327 23.7381C25.6472 23.7381 24.2849 22.3758 24.2849 20.6903V13.0478C24.2849 11.3623 25.6472 10 27.3327 10C29.0182 10 30.3805 11.3623 30.3805 13.0478V20.6903Z" fill="url(#paint3_linear_116_199)"/>
<path d="M27.3327 32.9046C29.0182 32.9046 30.3805 34.2668 30.3805 35.9523C30.3805 37.6379 29.0182 39.0001 27.3327 39.0001C25.6472 39.0001 24.2849 37.6379 24.2849 35.9523V32.9046H27.3327ZM27.3327 31.3807C25.6472 31.3807 24.2849 30.0184 24.2849 28.3329C24.2849 26.6474 25.6472 25.2852 27.3327 25.2852H34.9752C36.6607 25.2852 38.023 26.6474 38.023 28.3329C38.023 30.0184 36.6607 31.3807 34.9752 31.3807H27.3327Z" fill="url(#paint4_linear_116_199)"/>
<defs>
<linearGradient id="paint0_linear_116_199" x1="-5.12732e-07" y1="2.37154" x2="39.1487" y2="49.3237" gradientUnits="userSpaceOnUse">
<stop stop-color="#623E7E"/>
<stop offset="1" stop-color="#465394"/>
</linearGradient>
<linearGradient id="paint1_linear_116_199" x1="9.02344" y1="25.9628" x2="20.2093" y2="39.3783" gradientUnits="userSpaceOnUse">
<stop stop-color="#623E7E"/>
<stop offset="1" stop-color="#465394"/>
</linearGradient>
<linearGradient id="paint2_linear_116_199" x1="9" y1="10.6788" x2="20.2047" y2="24.1169" gradientUnits="userSpaceOnUse">
<stop stop-color="#623E7E"/>
<stop offset="1" stop-color="#465394"/>
</linearGradient>
<linearGradient id="paint3_linear_116_199" x1="24.2849" y1="10.6788" x2="35.493" y2="24.0984" gradientUnits="userSpaceOnUse">
<stop stop-color="#623E7E"/>
<stop offset="1" stop-color="#465394"/>
</linearGradient>
<linearGradient id="paint4_linear_116_199" x1="24.2849" y1="25.9628" x2="35.4674" y2="39.3968" gradientUnits="userSpaceOnUse">
<stop stop-color="#623E7E"/>
<stop offset="1" stop-color="#465394"/>
</linearGradient>
</defs>
</svg>
