<svg width="232" height="231" viewBox="0 0 232 231" fill="none" xmlns="http://www.w3.org/2000/svg">
<g opacity="0.4" filter="url(#filter0_f_116_626)">
<rect x="71" y="71.8359" width="90" height="88.1633" rx="12" fill="url(#paint0_linear_116_626)"/>
</g>
<rect x="71" y="70" width="90" height="88.1633" rx="30" fill="url(#paint1_linear_116_626)"/>
<path fill-rule="evenodd" clip-rule="evenodd" d="M117.09 93.8012C116.36 93.4647 115.519 93.4647 114.788 93.8012C114.286 94.0325 113.923 94.4653 113.599 94.9578C113.275 95.4498 112.918 96.117 112.475 96.9445L112.456 96.9786L108.594 104.197C108.41 104.54 108.38 104.582 108.354 104.609C108.316 104.649 108.271 104.681 108.221 104.704C108.187 104.72 108.138 104.735 107.754 104.799L99.423 106.183L99.3842 106.189L99.3841 106.189C98.3366 106.363 97.499 106.503 96.8671 106.667C96.2429 106.83 95.6653 107.052 95.2734 107.494C94.7116 108.128 94.4732 108.985 94.6272 109.818C94.7346 110.399 95.1147 110.887 95.5654 111.349C96.0217 111.816 96.6672 112.368 97.4746 113.057L97.4747 113.057L97.5046 113.083L103.805 118.465C104.193 118.797 104.237 118.849 104.261 118.89C104.295 118.95 104.315 119.018 104.319 119.088C104.321 119.135 104.312 119.202 104.165 119.692L101.587 128.255L101.576 128.293C101.212 129.503 100.924 130.459 100.77 131.198C100.621 131.913 100.55 132.613 100.818 133.197C101.195 134.016 101.948 134.598 102.836 134.756C103.469 134.869 104.128 134.624 104.782 134.3C105.459 133.964 106.312 133.445 107.391 132.788L107.424 132.767L115.331 127.952C115.739 127.703 115.798 127.678 115.842 127.669C115.906 127.654 115.973 127.654 116.037 127.669C116.081 127.678 116.139 127.703 116.548 127.952L124.454 132.767L124.488 132.788L124.488 132.788C125.567 133.445 126.42 133.964 127.096 134.3C127.751 134.624 128.41 134.869 129.043 134.756C129.93 134.598 130.684 134.016 131.06 133.197C131.328 132.613 131.258 131.913 131.109 131.198C130.955 130.459 130.667 129.503 130.302 128.293L130.291 128.255L127.713 119.692C127.566 119.202 127.557 119.135 127.56 119.088C127.563 119.018 127.583 118.95 127.618 118.89C127.641 118.849 127.685 118.797 128.074 118.465L134.374 113.083L134.404 113.057L134.404 113.057C135.211 112.368 135.857 111.816 136.313 111.349C136.764 110.887 137.144 110.399 137.251 109.818C137.405 108.985 137.167 108.128 136.605 107.494C136.213 107.052 135.635 106.83 135.011 106.667C134.379 106.503 133.542 106.363 132.494 106.189L132.455 106.183L124.124 104.799C123.74 104.735 123.692 104.72 123.657 104.704C123.607 104.681 123.562 104.649 123.524 104.609C123.498 104.582 123.468 104.54 123.285 104.197L119.422 96.9786L119.404 96.9445L119.404 96.9445C118.961 96.117 118.604 95.4499 118.28 94.9578C117.955 94.4653 117.592 94.0325 117.09 93.8012Z" fill="white"/>
<defs>
<filter id="filter0_f_116_626" x="0" y="0.835938" width="232" height="230.164" filterUnits="userSpaceOnUse" color-interpolation-filters="sRGB">
<feFlood flood-opacity="0" result="BackgroundImageFix"/>
<feBlend mode="normal" in="SourceGraphic" in2="BackgroundImageFix" result="shape"/>
<feGaussianBlur stdDeviation="35.5" result="effect1_foregroundBlur_116_626"/>
</filter>
<linearGradient id="paint0_linear_116_626" x1="71" y1="76.1918" x2="142.625" y2="163.883" gradientUnits="userSpaceOnUse">
<stop stop-color="#623E7E"/>
<stop offset="1" stop-color="#465394"/>
</linearGradient>
<linearGradient id="paint1_linear_116_626" x1="71" y1="74.3559" x2="142.625" y2="162.047" gradientUnits="userSpaceOnUse">
<stop stop-color="#623E7E"/>
<stop offset="1" stop-color="#465394"/>
</linearGradient>
</defs>
</svg>
