<svg width="48" height="48" viewBox="0 0 48 48" fill="none" xmlns="http://www.w3.org/2000/svg">
<rect opacity="0.3" width="48" height="48" rx="12" fill="url(#paint0_linear_116_768)"/>
<path fill-rule="evenodd" clip-rule="evenodd" d="M24 7C14.6112 7 7 14.6112 7 24C7 33.3888 14.6112 41 24 41C33.3888 41 41 33.3888 41 24C41 14.6112 33.3888 7 24 7ZM24.0523 14C24.4665 14 24.8023 14.3358 24.8023 14.75L24.8023 16.6105C24.8023 17.0247 24.4665 17.3605 24.0523 17.3605C23.6381 17.3605 23.3023 17.0247 23.3023 16.6105L23.3023 14.75C23.3023 14.3358 23.6381 14 24.0523 14ZM24.0523 30.7442C24.4665 30.7442 24.8023 31.08 24.8023 31.4942L24.8023 33.3547C24.8023 33.7689 24.4665 34.1047 24.0523 34.1047C23.6381 34.1047 23.3023 33.7689 23.3023 33.3547L23.3023 31.4942C23.3023 31.08 23.6381 30.7442 24.0523 30.7442ZM18.6512 24.0523C18.6512 21.0693 21.0693 18.6512 24.0523 18.6512C27.0353 18.6512 29.4535 21.0693 29.4535 24.0523C29.4535 27.0353 27.0353 29.4535 24.0523 29.4535C21.0693 29.4535 18.6512 27.0353 18.6512 24.0523ZM14.75 23.3027C14.3358 23.3027 14 23.6385 14 24.0527C14 24.4669 14.3358 24.8027 14.75 24.8027H16.6105C17.0247 24.8027 17.3605 24.4669 17.3605 24.0527C17.3605 23.6385 17.0247 23.3027 16.6105 23.3027H14.75ZM31.4942 23.3027C31.08 23.3027 30.7442 23.6385 30.7442 24.0527C30.7442 24.4669 31.08 24.8027 31.4942 24.8027H33.3547C33.7689 24.8027 34.1047 24.4669 34.1047 24.0527C34.1047 23.6385 33.7689 23.3027 33.3547 23.3027H31.4942ZM16.5454 16.5448C16.8383 16.2519 17.3131 16.252 17.606 16.5448L19.0014 17.9402C19.2943 18.2331 19.2943 18.708 19.0014 19.0009C18.7085 19.2938 18.2336 19.2938 17.9407 19.0009L16.5453 17.6055C16.2525 17.3126 16.2525 16.8377 16.5454 16.5448ZM29.1035 29.103C29.3964 28.8101 29.8713 28.8101 30.1642 29.103L31.5595 30.4984C31.8524 30.7912 31.8524 31.2661 31.5595 31.559C31.2666 31.8519 30.7917 31.8519 30.4988 31.559L29.1035 30.1637C28.8106 29.8708 28.8106 29.3959 29.1035 29.103ZM16.5453 30.4987C16.2524 30.7916 16.2524 31.2665 16.5453 31.5594C16.8381 31.8523 17.313 31.8523 17.6059 31.5594L19.0013 30.1641C19.2942 29.8712 19.2942 29.3963 19.0013 29.1034C18.7084 28.8105 18.2335 28.8105 17.9406 29.1034L16.5453 30.4987ZM29.1034 17.9406C28.8105 18.2335 28.8105 18.7084 29.1034 19.0013C29.3963 19.2942 29.8712 19.2942 30.1641 19.0013L31.5594 17.6059C31.8523 17.313 31.8523 16.8381 31.5594 16.5453C31.2665 16.2524 30.7916 16.2524 30.4987 16.5453L29.1034 17.9406Z" fill="url(#paint1_linear_116_768)"/>
<defs>
<linearGradient id="paint0_linear_116_768" x1="-5.12732e-07" y1="2.37154" x2="39.1487" y2="49.3237" gradientUnits="userSpaceOnUse">
<stop stop-color="#4269FF"/>
<stop offset="1" stop-color="#944FFF"/>
</linearGradient>
<linearGradient id="paint1_linear_116_768" x1="7" y1="8.67984" x2="34.7303" y2="41.9376" gradientUnits="userSpaceOnUse">
<stop stop-color="#4269FF"/>
<stop offset="1" stop-color="#944FFF"/>
</linearGradient>
</defs>
</svg>
